<?xml version="1.0" encoding="utf-8"?>
<!-- Generator: Adobe Illustrator 22.1.0, SVG Export Plug-In . SVG Version: 6.00 Build 0)  -->
<svg version="1.1" id="Layer_1" xmlns="http://www.w3.org/2000/svg" xmlns:xlink="http://www.w3.org/1999/xlink" x="0px" y="0px"
	 viewBox="0 0 163.2 26.1" style="enable-background:new 0 0 163.2 26.1;" xml:space="preserve">
<style type="text/css">
	.st0{fill:#FFFFFF;}
	.st1{fill:#FFDE00;}
</style>
<path class="st0" d="M43.9,6.7h-11v3.2H43V16H32.9v3.5H44V26H25.3V0.2h18.6C43.9,0.2,43.9,6.7,43.9,6.7z"/>
<path class="st0" d="M47.1,25.9V0.2h7.8v11l6.6-11h8.7l-7.5,12.4L70.8,26h-9l-7-12v12L47.1,25.9L47.1,25.9z"/>
<path class="st0" d="M71.9,25.9V0.2h7.8v11l6.6-11h8.8l-7.5,12.4L95.7,26h-9l-7-12v12L71.9,25.9L71.9,25.9z"/>
<path class="st0" d="M115.3,6.7h-11v3.2h10.1V16h-10.1v3.5h11.1V26H96.7V0.2h18.6V6.7z"/>
<path class="st0" d="M131.9,25.9l-4.8-8.6h-0.8v8.6h-7.8V0.2H129c3.2,0,5.7,0.7,7.6,2.1c1.9,1.4,2.9,3.5,2.9,6.3
	c0,3.6-1.6,6.1-4.8,7.4l5.7,9.9C140.4,25.9,131.9,25.9,131.9,25.9z M126.3,11.3h2.4c2.1,0,3.1-1,3.1-2.4c0-1.6-1-2.4-3.1-2.4h-2.5
	v4.8H126.3z"/>
<path class="st1" d="M154.7,26h-8.8l7.5-12.4l-8.1-13.4h9l7.9,13.2L154.7,26z"/>
<path class="st1" d="M7.9,11.2l6.6-11h8.8l-7.5,12.4L23.9,26h-9L7,12.8L7.9,11.2z"/>
<polygon class="st0" points="8.3,11.1 8.2,11.1 8.2,0.2 0.5,0.2 0.5,25.9 8.2,25.9 8.2,13.9 8.3,14 "/>
</svg>
