<?xml version="1.0" encoding="utf-8"?>
<!-- Generator: Adobe Illustrator 22.1.0, SVG Export Plug-In . SVG Version: 6.00 Build 0)  -->
<svg version="1.1" id="Layer_1" xmlns="http://www.w3.org/2000/svg" xmlns:xlink="http://www.w3.org/1999/xlink" x="0px" y="0px"
	 viewBox="0 0 176 40" style="enable-background:new 0 0 176 40;" xml:space="preserve">
<style type="text/css">
	.st0{fill:#FFDE00;}
	.st1{fill:#FFFFFF;}
</style>
<path class="st1" d="M53.7,15.2h-11v3.2h10.1v6.1H42.7v3.5h11.1v6.5H35.1V8.7h18.6V15.2z"/>
<path class="st1" d="M56.9,34.4V8.7h7.8v11l6.6-11H80l-7.5,12.4l8.1,13.4h-9l-7-12v12H56.9z"/>
<path class="st1" d="M81.7,34.4V8.7h7.8v11l6.6-11h8.8l-7.5,12.4l8.1,13.4h-9l-7-12v12H81.7z"/>
<path class="st1" d="M125.1,15.2h-11v3.2h10.1v6.1h-10.1v3.5h11.1v6.5h-18.7V8.7h18.6V15.2z"/>
<path class="st1" d="M141.7,34.4l-4.8-8.6h-0.8v8.6h-7.8V8.7h10.5c3.2,0,5.7,0.7,7.6,2.1c1.9,1.4,2.9,3.5,2.9,6.3c0,3.6-1.6,6.1-4.8,7.4l5.7,9.9
	H141.7z M136.1,19.8h2.4c2.1,0,3.1-1,3.1-2.4c0-1.6-1-2.4-3.1-2.4h-2.5V19.8z"/>
<path class="st0" d="M171.1,23.5l-6.6,11h-8.8l7.5-12.4l-8.1-13.4h9l7.9,13.2L171.1,23.5z"/>
<path class="st0" d="M17.7,19.6l6.6-11h8.8l-7.5,12.4l8.1,13.4h-9l-7.9-13.2L17.7,19.6z"/>
<polygon class="st1" points="18.1,19.6 18,19.6 18,8.7 10.3,8.7 10.3,34.4 18,34.4 18,22.4 18.1,22.5 "/>
</svg>
