<svg height="100%" viewBox="0 0 20 21" fill="none" xmlns="http://www.w3.org/2000/svg">
    <path d="M10 20.0507C15.5228 20.0507 20 15.5735 20 10.0507C20 4.52781 15.5228 0.0506592 10 0.0506592C4.47715 0.0506592 0 4.52781 0 10.0507C0 15.5735 4.47715 20.0507 10 20.0507Z" fill="#1F1F1F"/>
    <path d="M9.24167 6.32399C8.41528 6.45881 8.00208 6.85844 8.00208 7.52288C8.00208 8.16807 8.425 8.65436 9.27083 8.98177C9.34861 9.00103 9.3875 8.97214 9.3875 8.8951V6.4251C9.3875 6.33844 9.33889 6.30473 9.24167 6.32399ZM11.9688 12.3618C11.9688 11.9766 11.8764 11.6684 11.6917 11.4373C11.5167 11.1966 11.2007 10.9895 10.7438 10.8162C10.7146 10.8066 10.6854 10.8114 10.6563 10.8307C10.6271 10.8403 10.6125 10.8595 10.6125 10.8884V13.6473C10.6125 13.6762 10.6271 13.7051 10.6563 13.734C10.6854 13.7533 10.7146 13.7581 10.7438 13.7484C11.5604 13.5655 11.9688 13.1033 11.9688 12.3618ZM9.25625 10.3684C8.28403 10.0603 7.57917 9.6751 7.14167 9.21288C6.71389 8.75066 6.5 8.18733 6.5 7.52288C6.5 6.81992 6.72847 6.25659 7.18542 5.83288C7.65208 5.39955 8.3375 5.13473 9.24167 5.03844C9.33889 5.01918 9.3875 4.97103 9.3875 4.89399V4.15733C9.3875 3.99362 9.44583 3.85399 9.5625 3.73844C9.68889 3.61325 9.83472 3.55066 10 3.55066C10.1653 3.55066 10.3062 3.61325 10.4229 3.73844C10.5493 3.85399 10.6125 3.99362 10.6125 4.15733V4.89399C10.6125 4.98066 10.6514 5.02399 10.7292 5.02399C11.3806 5.07214 11.959 5.14918 12.4646 5.2551C12.6688 5.29362 12.8292 5.39955 12.9458 5.57288C13.0722 5.73659 13.1354 5.91955 13.1354 6.12177C13.1354 6.28547 13.0625 6.42029 12.9167 6.52621C12.7806 6.62251 12.6299 6.64658 12.4646 6.59844C11.9104 6.44436 11.3368 6.34325 10.7438 6.2951C10.6562 6.2951 10.6125 6.33362 10.6125 6.41066V9.24177C10.6125 9.30918 10.6562 9.36214 10.7438 9.40066C11.7646 9.70881 12.4792 10.094 12.8875 10.5562C13.2958 11.0088 13.5 11.6107 13.5 12.3618C13.5 13.1225 13.2667 13.734 12.8 14.1962C12.3333 14.6488 11.6528 14.9329 10.7583 15.0484C10.6611 15.0677 10.6125 15.1158 10.6125 15.1929V15.9295C10.6125 16.0933 10.5493 16.2377 10.4229 16.3629C10.3062 16.4881 10.1653 16.5507 10 16.5507C9.83472 16.5507 9.68889 16.4881 9.5625 16.3629C9.44583 16.2377 9.3875 16.0933 9.3875 15.9295V15.2218C9.3875 15.1351 9.34375 15.0918 9.25625 15.0918C8.58542 15.0436 7.97292 14.9377 7.41875 14.774C7.20486 14.7066 7.03472 14.5862 6.90833 14.4129C6.78194 14.2299 6.71875 14.0277 6.71875 13.8062C6.71875 13.6425 6.78681 13.5173 6.92292 13.4307C7.06875 13.344 7.21944 13.3295 7.375 13.3873C7.95833 13.6088 8.58542 13.7484 9.25625 13.8062C9.34375 13.8062 9.3875 13.7677 9.3875 13.6907V10.5273C9.3875 10.4599 9.34375 10.407 9.25625 10.3684Z" fill="white"/>
</svg>