<?xml version="1.0" encoding="utf-8"?>
<!-- Generator: Adobe Illustrator 22.1.0, SVG Export Plug-In . SVG Version: 6.00 Build 0)  -->
<svg version="1.1" id="Layer_1" xmlns="http://www.w3.org/2000/svg" xmlns:xlink="http://www.w3.org/1999/xlink" x="0px" y="0px"
	 viewBox="0 0 162.8 26.3" style="enable-background:new 0 0 162.8 26.3;" xml:space="preserve">
<path d="M43.6,6.7h-11v3.2h10.1V16H32.6v3.5h11.1V26H25V0.2h18.6C43.6,0.2,43.6,6.7,43.6,6.7z"/>
<path d="M46.8,25.9V0.2h7.8v11l6.6-11h8.7l-7.5,12.4L70.5,26h-9l-7-12v12L46.8,25.9L46.8,25.9z"/>
<path d="M71.6,25.9V0.2h7.8v11l6.6-11h8.8l-7.5,12.4L95.4,26h-9l-7-12v12L71.6,25.9L71.6,25.9z"/>
<path d="M115,6.7h-11v3.2h10.1V16H104v3.5h11.1V26H96.4V0.2H115V6.7z"/>
<path d="M131.6,25.9l-4.8-8.6H126v8.6h-7.8V0.2h10.5c3.2,0,5.7,0.7,7.6,2.1c1.9,1.4,2.9,3.5,2.9,6.3c0,3.6-1.6,6.1-4.8,7.4l5.7,9.9
	C140.1,25.9,131.6,25.9,131.6,25.9z M126,11.3h2.4c2.1,0,3.1-1,3.1-2.4c0-1.6-1-2.4-3.1-2.4h-2.5v4.8H126z"/>
<path d="M161,15l-6.6,11h-8.8l7.5-12.4L145,0.2h9l7.9,13.2L161,15z"/>
<path d="M7.6,11.1l6.6-11H23l-7.5,12.4l8.1,13.4h-9L6.7,12.7L7.6,11.1z"/>
<polygon points="8,11.1 7.9,11.1 7.9,0.2 0.2,0.2 0.2,25.9 7.9,25.9 7.9,13.9 8,14 "/>
</svg>
